<svg width="685" height="85" viewBox="0 0 685 85" fill="none" xmlns="http://www.w3.org/2000/svg">
<path d="M-0.000874519 83.7119V1.27991H17.2791V35.8399H53.2471V1.27991H70.5271V83.7119H53.2471V49.1519H17.2791V83.7119H-0.000874519ZM121.348 84.9919C109.999 84.9919 100.996 82.2612 94.3401 76.7999C87.7695 71.2532 84.4841 63.2319 84.4841 52.7359V1.27991H101.764V51.4559C101.764 57.7706 103.471 62.5066 106.884 65.6639C110.297 68.7359 115.119 70.2719 121.348 70.2719C127.577 70.2719 132.356 68.7359 135.684 65.6639C139.097 62.5066 140.804 57.7706 140.804 51.4559V1.27991H158.084V52.7359C158.084 63.2319 154.799 71.2532 148.228 76.7999C141.657 82.2612 132.697 84.9919 121.348 84.9919ZM171.999 83.7119V1.27991H189.407L213.599 50.8159L237.791 1.27991H255.071V83.7119H237.791V30.0799L218.591 69.5039H208.607L189.279 30.0799V83.7119H171.999ZM267.064 83.7119L298.552 1.27991H317.496L348.856 83.7119H330.936L323.128 63.8719H292.792L285.112 83.7119H267.064ZM295.352 50.5599H320.568L307.896 17.4079L295.352 50.5599ZM360.874 83.7119V1.27991H375.85L414.89 56.1919V1.27991H432.17V83.7119H417.194L378.154 28.7999V83.7119H360.874ZM560.177 83.7119L528.689 1.27991H546.737L569.521 64.3839L592.433 1.27991H610.481L579.121 83.7119H560.177ZM602.689 83.7119L634.177 1.27991H653.121L684.481 83.7119H666.561L658.753 63.8719H628.417L620.737 83.7119H602.689ZM630.977 50.5599H656.193L643.521 17.4079L630.977 50.5599Z" fill="black"/>
<path d="M484.253 84.9919C457.544 84.9919 444.189 70.9546 444.189 42.8799C444.189 27.7759 447.56 16.8532 454.301 10.1119C461.042 3.37057 471.026 -9.15527e-05 484.253 -9.15527e-05C497.48 -9.15527e-05 507.464 3.37057 514.205 10.1119C520.946 16.8532 524.317 27.7759 524.317 42.8799C524.317 70.9546 510.962 84.9919 484.253 84.9919ZM484.253 70.2719C492.018 70.2719 497.693 68.0532 501.277 63.6159C504.946 59.0932 506.781 52.1812 506.781 42.8799C506.781 32.5546 504.946 25.3012 501.277 21.1199C497.693 16.8532 492.018 14.7199 484.253 14.7199C476.488 14.7199 470.77 16.8532 467.101 21.1199C463.517 25.3012 461.725 32.5546 461.725 42.8799C461.725 52.1812 463.517 59.0932 467.101 63.6159C470.77 68.0532 476.488 70.2719 484.253 70.2719Z" fill="#79FE0C"/>
</svg>
